<svg xmlns="http://www.w3.org/2000/svg" viewBox="0 0 64 64">
  <rect width="64" height="64" rx="15" fill="#fff0f3"/>
  <circle cx="31" cy="30" r="22" fill="#FE6666" stroke="#842d2d" stroke-width="3"/>
  <path d="M14 25c11-7 25-7 36 1M12 34c13-6 29-4 39 4M20 12c5 10 18 17 31 18M11 30c8 5 15 14 18 23M29 8c-2 12 7 30 19 40M48 14C35 19 22 33 19 47" fill="none" stroke="#fff7f7" stroke-width="3.4" stroke-linecap="round"/>
  <path d="M46 45c4 3 6 7 6 12" fill="none" stroke="#842d2d" stroke-width="3" stroke-linecap="round"/>
</svg>
